HIERARCHY
ROOT Hips
{
	OFFSET 0.000000 0.000000 0.000000 
	CHANNELS 6 Xposition Yposition Zposition Zrotation Yrotation Xrotation
	JOINT LeftUpLeg
	{
		OFFSET 1.363060 -1.794630 0.839290 
		CHANNELS 3 Zrotation Yrotation Xrotation
		JOINT LeftLeg
		{
			OFFSET 2.448110 -6.726130 0.000000 
			CHANNELS 3 Zrotation Yrotation Xrotation
			JOINT LeftFoot
			{
				OFFSET 2.562200 -7.039590 0.000000 
				CHANNELS 3 Zrotation Yrotation Xrotation
				JOINT LeftToeBase
				{
					OFFSET 0.157640 -0.433110 2.322550 
					CHANNELS 3 Zrotation Yrotation Xrotation
					End Site
					{
						OFFSET 0.000000 0.000000 0.000000 
					}
				}
			}
		}
	}
	JOINT RightUpLeg
	{
		OFFSET -1.305520 -1.794630 0.839290 
		CHANNELS 3 Zrotation Yrotation Xrotation
		JOINT RightLeg
		{
			OFFSET -2.542530 -6.985550 0.000000 
			CHANNELS 3 Zrotation Yrotation Xrotation
			JOINT RightFoot
			{
				OFFSET -2.568260 -7.056230 0.000000 
				CHANNELS 3 Zrotation Yrotation Xrotation
				JOINT RightToeBase
				{
					OFFSET -0.164730 -0.452590 2.363150 
					CHANNELS 3 Zrotation Yrotation Xrotation
					End Site
					{
						OFFSET 0.000000 0.000000 0.000000 
					}
				}
			}
		}
	}
	JOINT Spine
	{
		OFFSET 0.028270 2.035590 -0.193380 
		CHANNELS 3 Zrotation Yrotation Xrotation
		JOINT Spine1
		{
			OFFSET 0.056720 2.048850 -0.042750 
			CHANNELS 3 Zrotation Yrotation Xrotation
			JOINT Neck1
			{
				OFFSET -0.054170 1.746240 0.172020 
				CHANNELS 3 Zrotation Yrotation Xrotation
				JOINT Head
				{
					OFFSET 0.104070 1.761360 -0.123970 
					CHANNELS 3 Zrotation Yrotation Xrotation
					End Site
					{
						OFFSET 0.000000 0.000000 0.000000 
					}
				}
			}
			JOINT LeftArm
			{
				OFFSET 3.362410 1.200890 -0.311210 
				CHANNELS 3 Zrotation Yrotation Xrotation
				JOINT LeftForeArm
				{
					OFFSET 4.983000 -0.000000 -0.000000 
					CHANNELS 3 Zrotation Yrotation Xrotation
					JOINT LeftHand
					{
						OFFSET 3.483560 -0.000000 -0.000000 
						CHANNELS 3 Zrotation Yrotation Xrotation
						JOINT LeftHandIndex1
						{
							OFFSET 0.715260 -0.000000 -0.000000 
							CHANNELS 3 Zrotation Yrotation Xrotation
							End Site
							{
								OFFSET 0.000000 0.000000 0.000000 
							}
						}
					}
				}
			}
			JOINT RightArm
			{
				OFFSET -3.136600 1.374050 -0.404650 
				CHANNELS 3 Zrotation Yrotation Xrotation
				JOINT RightForeArm
				{
					OFFSET -5.241900 -0.000000 -0.000000 
					CHANNELS 3 Zrotation Yrotation Xrotation
					JOINT RightHand
					{
						OFFSET -3.444170 -0.000000 -0.000000 
						CHANNELS 3 Zrotation Yrotation Xrotation
						JOINT RightHandIndex1
						{
							OFFSET -0.622530 -0.000000 -0.000000 
							CHANNELS 3 Zrotation Yrotation Xrotation
							End Site
							{
								OFFSET 0.000000 0.000000 0.000000 
							}
						}
					}
				}
			}
		}
	}
}
MOTION
Frames: 6
Frame Time: 0.041667
7.318129 18.393821 7.619689 179.629156 33.298044 178.510073 -13.861792 -14.877353 -0.320306 3.718454 12.421559 39.629207 4.330521 -13.023639 48.043993 1.043600 6.496600 18.232400 16.044192 -1.549323 -13.487967 -1.997619 -9.497747 28.394061 -0.616518 1.748350 5.972226 -0.491500 4.494900 -12.473400 0.921799 6.239986 2.566508 -3.798373 3.293815 -2.092085 4.095032 24.704608 36.588865 6.826300 10.427100 18.924400 -82.569666 -1.390147 17.294003 15.221923 -21.485982 -3.403973 -1.250434 -2.630226 5.519085 -7.125000 0.000000 0.000000 79.212412 -7.121789 22.124625 -17.410405 25.775639 -4.292481 0.380512 -0.082183 5.624866 7.125000 0.000000 0.000000 
7.242840 18.373770 7.684051 179.455441 33.969738 178.573261 -14.165563 -14.562416 0.369708 3.525094 12.166428 38.513271 4.717441 -11.117460 49.033564 1.381700 7.437900 21.019400 15.823913 -0.906397 -14.008104 -2.021020 -9.577999 28.587139 -0.634548 1.833197 6.026655 -0.426300 4.190300 -11.612700 0.915016 6.120343 2.481554 -3.610148 3.214137 -2.121243 4.223499 24.495135 36.806443 6.936900 10.288600 19.101000 -82.466015 -1.513859 17.678672 15.383494 -21.715321 -3.487125 -1.239165 -2.592435 5.128264 -7.125000 0.000000 0.000000 78.986266 -7.584434 22.083524 -17.236314 25.552775 -4.210587 0.379107 -0.082237 5.847458 7.125000 0.000000 0.000000 
7.163841 18.358231 7.745505 179.212027 34.571459 178.578070 -14.569780 -14.181084 1.000385 3.302185 11.883747 37.396589 4.897722 -9.926217 49.362330 1.681800 8.169100 23.228900 15.510932 -0.392356 -14.543166 -2.047044 -9.658847 28.786793 -0.668605 2.016657 6.069046 -0.355100 3.828500 -10.594800 0.889332 5.946353 2.382668 -3.448962 3.110335 -2.198926 4.246841 24.336803 36.820848 6.931400 10.206900 19.081200 -82.424844 -1.447647 18.207636 15.555044 -21.965591 -3.576428 -1.257971 -2.586421 3.852248 -7.125000 0.000000 0.000000 78.806980 -8.066320 21.863543 -17.060632 25.329445 -4.128798 0.374700 -0.093552 6.219433 7.125000 0.000000 0.000000 
7.078526 18.338081 7.803151 179.027557 35.065042 178.531741 -15.017296 -13.957444 1.748647 3.078240 11.600890 36.337204 4.900050 -8.899451 48.961880 2.059700 8.989200 25.761700 15.246817 -0.216053 -15.071309 -2.069219 -9.726498 28.951618 -0.712461 2.258033 6.148121 -0.298300 3.511900 -9.707400 0.833035 5.698974 2.329532 -3.415743 2.979266 -2.204179 4.170328 24.207290 36.750638 6.845400 10.155700 19.066700 -82.235376 -1.525480 18.211246 15.831767 -22.365679 -3.716076 -1.215692 -2.626745 4.621972 -7.125000 0.000000 0.000000 78.719203 -8.458730 21.806533 -16.926869 25.156625 -4.066059 0.379008 -0.093233 6.397573 7.125000 0.000000 0.000000 
6.989903 18.318832 7.866510 179.016394 35.496457 178.619077 -15.298143 -13.740280 2.372626 2.800197 11.282793 35.333016 4.723520 -9.888868 48.398265 1.843800 8.532800 24.344400 15.192113 -0.154730 -15.675353 -2.081064 -9.772505 29.055352 -0.741405 2.410322 6.262184 -0.320100 3.636500 -10.056200 0.850182 5.532498 2.294309 -3.323003 2.886667 -2.218489 4.005312 23.986111 36.703727 6.744400 10.036100 19.131600 -82.189569 -1.736143 18.353515 16.108509 -22.742328 -3.855651 -1.236326 -2.537621 5.133477 -7.125000 0.000000 0.000000 78.493100 -8.885395 21.689281 -16.939282 25.181027 -4.073765 0.374759 -0.080515 6.366974 7.125000 0.000000 0.000000 
6.896868 18.301889 7.932677 178.952022 35.786815 178.667474 -15.607404 -13.742200 2.982617 2.488018 10.930385 34.314651 4.460454 -12.156190 47.914619 1.236700 7.052000 19.869500 15.086742 -0.079997 -16.234459 -2.089611 -9.810822 29.135222 -0.759343 2.502303 6.273890 -0.364400 3.877600 -10.732400 0.894760 5.327860 2.246369 -3.202472 2.773488 -2.289450 3.822224 23.834352 36.651294 6.662900 9.920900 19.145100 -82.347555 -1.933636 18.349153 16.411442 -23.139981 -4.007515 -1.221424 -2.496350 5.340966 -7.125000 0.000000 0.000000 78.109548 -9.428389 21.743668 -17.036411 25.319916 -4.121371 0.372379 -0.070651 6.080773 7.125000 0.000000 0.000000 
